<?xml version="1.0" standalone="no"?>
<!DOCTYPE svg PUBLIC "-//W3C//DTD SVG 20010904//EN"
 "http://www.w3.org/TR/2001/REC-SVG-20010904/DTD/svg10.dtd">
<svg version="1.0" xmlns="http://www.w3.org/2000/svg"
 width="152.000000pt" height="152.000000pt" viewBox="0 0 152.000000 152.000000"
 preserveAspectRatio="xMidYMid meet">
<metadata>
Created by potrace 1.11, written by Peter Selinger 2001-2013
</metadata>
<g transform="translate(0.000000,152.000000) scale(0.100000,-0.100000)"
fill="#000000" stroke="none">
<path d="M823 1464 c-27 -29 -29 -40 -9 -47 12 -5 12 -11 3 -31 -12 -27 -31
-34 -42 -16 -11 18 -47 12 -43 -7 3 -14 13 -18 41 -17 26 1 35 -2 28 -9 -5 -5
-7 -16 -4 -25 5 -12 0 -12 -26 4 -28 16 -33 17 -41 4 -13 -20 15 -49 31 -33 6
6 17 9 24 7 13 -5 13 -18 -4 -109 -19 -104 -21 -113 -37 -177 -1 -5 -2 -12 -3
-18 -2 -21 -37 -9 -48 18 -103 248 -171 376 -201 380 -17 3 -22 -2 -22 -18 0
-18 4 -21 21 -17 20 6 40 -29 124 -218 7 -16 25 -57 40 -89 21 -47 23 -61 13
-67 -19 -12 -36 -11 -42 4 -3 7 -5 6 -3 -4 1 -8 -10 -26 -24 -40 -38 -36 -51
-80 -53 -171 -2 -70 0 -82 16 -86 26 -6 32 -43 18 -101 -15 -65 -50 -104 -85
-95 -21 5 -25 3 -25 -14 0 -11 -14 -55 -31 -98 -34 -84 -35 -135 -4 -193 18
-37 89 -91 118 -91 13 0 17 -5 14 -15 -4 -8 -1 -17 5 -21 6 -4 8 -3 4 4 -3 6
-2 13 4 17 9 6 15 -8 11 -29 -1 -5 10 -1 25 9 14 9 24 12 20 7 -4 -7 16 -10
54 -11 33 0 65 -3 70 -6 6 -3 10 -2 10 3 0 8 60 7 86 -2 20 -7 33 8 18 22 -8
7 -14 9 -14 4 0 -5 -7 -9 -15 -9 -23 0 -18 23 8 34 22 10 83 78 86 96 0 4 1
24 2 45 l1 37 15 -35 c18 -41 29 -110 18 -110 -4 0 -14 8 -22 17 -11 14 -10 9
2 -21 8 -21 15 -40 15 -42 0 -2 10 -3 23 -1 14 1 21 -3 19 -11 -1 -8 3 -12 10
-9 25 8 13 55 -68 266 -14 35 -23 70 -20 78 3 7 -1 16 -9 19 -8 4 -15 11 -15
18 0 6 -11 36 -23 66 -27 66 -21 116 16 125 17 5 27 22 45 79 38 122 9 199
-92 241 l-38 16 6 52 c3 29 9 77 11 107 8 83 28 180 37 180 4 0 8 -4 8 -10 0
-16 37 -12 43 5 8 19 -6 27 -38 21 -20 -4 -25 -1 -25 15 0 10 7 19 15 19 8 0
15 -4 15 -10 0 -15 26 -12 39 4 9 10 7 16 -5 27 -9 8 -18 9 -22 3 -10 -15 -37
-10 -34 6 2 7 10 18 17 24 12 9 11 16 -6 44 -24 37 -27 38 -56 6z m56 -1004
c0 -10 -3 -8 -9 5 -12 27 -12 43 0 25 5 -8 9 -22 9 -30z m115 -361 c-3 -5 -10
-7 -15 -3 -5 3 -7 10 -3 15 3 5 10 7 15 3 5 -3 7 -10 3 -15z"/>
<path d="M490 1311 c0 -6 4 -13 10 -16 6 -3 7 1 4 9 -7 18 -14 21 -14 7z"/>
<path d="M510 1265 c0 -5 5 -17 10 -25 5 -8 10 -10 10 -5 0 6 -5 17 -10 25 -5
8 -10 11 -10 5z"/>
<path d="M590 1051 c0 -6 4 -13 10 -16 6 -3 7 1 4 9 -7 18 -14 21 -14 7z"/>
<path d="M535 60 c-3 -5 -1 -10 4 -10 6 0 11 5 11 10 0 6 -2 10 -4 10 -3 0 -8
-4 -11 -10z"/>
<path d="M903 53 c0 -9 4 -10 14 -2 7 6 13 12 13 14 0 1 -6 2 -13 2 -8 0 -14
-6 -14 -14z"/>
<path d="M946 58 c3 -5 10 -6 15 -3 13 9 11 12 -6 12 -8 0 -12 -4 -9 -9z"/>
</g>
</svg>
